<svg width="50" height="50" xmlns="http://www.w3.org/2000/svg">

 <g>
  <title>background</title>
  <rect fill="none" id="canvas_background" height="402" width="582" y="-1" x="-1"/>
 </g>
 <g>
  <title>Layer 1</title>
  <rect id="svg_1" width="50" height="50" fill="none"/>
  <path id="svg_3" stroke-width="2.1081" stroke-miterlimit="10" stroke-linejoin="round" stroke-linecap="round" stroke="#08a628" fill="none" d="m37,44.502c0,2.483 -2.015,4.498 -4.501,4.498c-2.484,0 -4.499,-2.015 -4.499,-4.498c0,-2.487 2.015,-4.502 4.499,-4.502c2.486,0 4.501,2.015 4.501,4.502z"/>
  <path id="svg_5" stroke-width="2" stroke-miterlimit="10" stroke-linejoin="round" stroke-linecap="round" stroke="#08a628" fill="none" d="m35,5.501c0,2.485 -2.015,4.499 -4.5,4.499s-4.5,-2.014 -4.5,-4.499c0,-2.487 2.015,-4.501 4.5,-4.501s4.5,2.014 4.5,4.501z"/>
  <path id="svg_6" stroke-width="2" stroke-miterlimit="10" stroke-linejoin="round" stroke-linecap="round" stroke="#08a628" fill="none" d="m31.324,19.137c0,0 -11.109,26.648 -11.557,27.71s-1.159,2.399 -3.07,1.815c-1.44,-0.44 -1.738,-1.759 -1.291,-3.269s7.101,-18.398 6.564,-18.475c-0.371,-0.053 -4.55,7.059 -5.451,8.438c-0.625,0.955 -1.572,2.1 -3.178,1.396c-1.315,-0.574 -1.599,-2.055 -1.068,-3.205c2.123,-4.603 8.727,-18.547 8.727,-18.547s-11.265,-0.04 -14,0c-2.876,0.042 -3.206,-2.448 0,-3c3.717,-0.638 14.877,-2 14.877,-2s1.814,-0.177 3.242,0.555c1.345,0.69 5.488,2.931 7.394,4.028c1.556,0.897 5.872,3.995 5.872,3.995l6.053,-4.626c0,0 1.323,-0.947 2.118,-0.179c0.914,0.885 0.151,1.957 -0.861,2.979c-1.015,1.026 -5.349,4.048 -6.077,4.693c-0.324,0.287 -1.103,0.858 -2.496,0.303c-1.395,-0.557 -5.798,-2.611 -5.798,-2.611z"/>
 </g>
</svg>